<?xml version="1.0" encoding="utf-8"?>
<!-- Generator: Adobe Illustrator 22.1.0, SVG Export Plug-In . SVG Version: 6.00 Build 0)  -->
<svg version="1.1" id="Layer_1" xmlns="http://www.w3.org/2000/svg" xmlns:xlink="http://www.w3.org/1999/xlink" x="0px" y="0px"
	 viewBox="0 0 22 17" style="enable-background:new 0 0 22 17;" xml:space="preserve">
<style type="text/css">
	.st0{fill:#000000;fill-opacity:1;}
</style>
<g>
	<g>
		<path class="st0" d="M16,13.6v2c0,0.5-0.4,1-1,1H1c-0.6,0-1-0.5-1-1v-2c0-2.7,5.3-4,8-4S16,11,16,13.6z M12.7,8.4
			c1.8-2.2,1.8-5.3,0-7.5c0.4-0.1,0.9-0.2,1.3-0.2c2.2,0,4,1.8,4,4s-1.8,4-4,4C13.5,8.6,13.1,8.5,12.7,8.4z M4,4.7c0-2.2,1.8-4,4-4
			s4,1.8,4,4s-1.8,4-4,4S4,6.9,4,4.7z M22,13.6v2c0,0.5-0.5,1-1,1h-3v-3c0-1.7-1-2.9-2.3-3.9C18.4,10.2,22,11.5,22,13.6z"/>
	</g>
</g>
</svg>
