<svg xmlns="http://www.w3.org/2000/svg" viewBox="0 0 17.96 17.96"><defs><style>.cls-1{fill:#39f;}.cls-2{fill:#fff;}</style></defs><title>Asset 1</title><g id="Layer_2" data-name="Layer 2"><g id="Layer_1-2" data-name="Layer 1"><path class="cls-1" d="M16.2,12.25,13.66,12a2,2,0,0,0-1.64.57l-1.84,1.84A15,15,0,0,1,3.59,7.78L5.44,5.93A2,2,0,0,0,6,4.29L5.72,1.77A2,2,0,0,0,3.73,0H2A2,2,0,0,0,0,2.07,17,17,0,0,0,15.89,18,2,2,0,0,0,18,16V14.23A2,2,0,0,0,16.2,12.25Z"/><rect class="cls-1" x="8.21" y="2.88" width="6.75" height="6.75" rx="1.77" ry="1.77"/><rect class="cls-2" x="11.2" y="4.33" width="0.76" height="3.85" rx="0.38" ry="0.38"/><rect class="cls-2" x="11.2" y="4.33" width="0.76" height="3.85" rx="0.38" ry="0.38" transform="translate(17.84 -5.32) rotate(90)"/></g></g></svg>