<svg xmlns="http://www.w3.org/2000/svg" viewBox="0 0 18 12"><defs><style>.cls-1{fill:#39f;}.cls-2{fill:#fff;}</style></defs><title>Asset 1</title><g id="Layer_2" data-name="Layer 2"><g id="Layer_1-2" data-name="Layer 1"><path class="cls-1" d="M14,4.5V1a1,1,0,0,0-1-1H1A1,1,0,0,0,0,1V11a1,1,0,0,0,1,1H13a1,1,0,0,0,1-1V7.5l2.29,2.29A1,1,0,0,0,18,9.08V2.91a1,1,0,0,0-1.71-.71Z"/><path class="cls-2" d="M8.29,2.27H5.08A1.77,1.77,0,0,0,3.31,4v3.2A1.77,1.77,0,0,0,5.08,9H8.29a1.77,1.77,0,0,0,1.77-1.77V4A1.77,1.77,0,0,0,8.29,2.27ZM8.23,6H7.06V7.19a.38.38,0,1,1-.75,0V6H5.14a.38.38,0,0,1,0-.76H6.31V4.09a.38.38,0,0,1,.75,0V5.26H8.23a.38.38,0,0,1,0,.76Z"/></g></g></svg>